<svg width="39" height="40" viewBox="0 0 39 40" fill="none" xmlns="http://www.w3.org/2000/svg">
<ellipse cx="19.0905" cy="19.8874" rx="19.0905" ry="19.8874" fill="#5A67BA"/>
<path d="M13.09 16.729C13.09 15.9663 13.255 15.288 13.585 14.694C13.915 14.0926 14.3733 13.627 14.96 13.297C15.554 12.9596 16.225 12.791 16.973 12.791C17.8897 12.791 18.6743 13.033 19.327 13.517C19.9797 14.001 20.416 14.661 20.636 15.497H18.568C18.414 15.1743 18.194 14.9286 17.908 14.76C17.6293 14.5913 17.3103 14.507 16.951 14.507C16.3717 14.507 15.9023 14.7086 15.543 15.112C15.1837 15.5153 15.004 16.0543 15.004 16.729C15.004 17.4036 15.1837 17.9426 15.543 18.346C15.9023 18.7493 16.3717 18.951 16.951 18.951C17.3103 18.951 17.6293 18.8666 17.908 18.698C18.194 18.5293 18.414 18.2836 18.568 17.961H20.636C20.416 18.797 19.9797 19.457 19.327 19.941C18.6743 20.4176 17.8897 20.656 16.973 20.656C16.225 20.656 15.554 20.491 14.96 20.161C14.3733 19.8236 13.915 19.358 13.585 18.764C13.255 18.17 13.09 17.4916 13.09 16.729Z" fill="white"/>
</svg>
